<svg width="27" height="12" viewBox="0 0 27 12" fill="none" xmlns="http://www.w3.org/2000/svg">
<path d="M10.0887 0.578097L6.69088 8.6117H4.4744L2.80212 2.199C2.70069 1.80521 2.61292 1.6602 2.30408 1.49392C1.80019 1.22259 0.967298 0.96866 0.23584 0.810759L0.284602 0.577452H3.85347C4.3073 0.577452 4.71691 0.877142 4.82029 1.39596L5.70325 6.04597L7.88397 0.578097H10.0887ZM13.0855 0.578097L11.3514 8.6117H9.25456L10.9886 0.578097H13.0855ZM18.7739 5.98861C18.7824 3.86888 15.8162 3.75158 15.8357 2.80417C15.8429 2.51609 16.1199 2.20931 16.7252 2.13132C17.0249 2.09265 17.8546 2.06236 18.7934 2.49095L19.1608 0.786268C18.6562 0.605166 18.0067 0.431152 17.1992 0.431152C15.1264 0.431152 13.6674 1.52228 13.6563 3.08646C13.6427 4.24397 14.6979 4.88846 15.4911 5.27323C16.3091 5.66701 16.5828 5.91965 16.5789 6.27155C16.573 6.81034 15.9261 7.0488 15.3247 7.05847C14.2694 7.07458 13.6583 6.77554 13.1706 6.55061L12.7909 8.31072C13.2812 8.535 14.1856 8.72706 15.1218 8.73737C17.326 8.73802 18.7668 7.65849 18.7739 5.98861ZM24.2472 8.6117H26.186L24.4923 0.578097H22.7036C22.3005 0.578097 21.9611 0.810115 21.8109 1.16652L18.6647 8.6117H20.8669L21.3031 7.41165H23.9936L24.2472 8.6117ZM21.9065 5.76562L23.0112 2.7481L23.6458 5.76562H21.9065ZM15.7694 10.8236H14.9177V11.6099H15.8702V11.8464H14.6303V9.66544H15.8214V9.90068H14.9177V10.5896H15.7694V10.8236ZM16.3104 9.54879H16.5971V11.8458H16.3104V9.54879ZM17.3214 11.1143C17.3279 11.5003 17.573 11.6589 17.863 11.6589C18.0685 11.6589 18.1966 11.6228 18.3006 11.5777L18.3526 11.78C18.2512 11.8251 18.075 11.8806 17.824 11.8806C17.3377 11.8806 17.0477 11.5609 17.0477 11.0885C17.0477 10.6161 17.3286 10.2461 17.7882 10.2461C18.3071 10.2461 18.441 10.6921 18.441 10.9815C18.441 11.0395 18.4378 11.0807 18.4306 11.1136H17.3214V11.1143ZM18.164 10.9106C18.1673 10.7334 18.0886 10.4511 17.7661 10.4511C17.4723 10.4511 17.3481 10.7127 17.3253 10.9106H18.164ZM20.0041 11.791C19.9287 11.8271 19.7622 11.8825 19.5502 11.8825C19.0737 11.8825 18.7642 11.5615 18.7642 11.0833C18.7642 10.6012 19.0964 10.2487 19.6127 10.2487C19.7824 10.2487 19.9326 10.29 20.0106 10.3318L19.9456 10.5497C19.8766 10.513 19.7687 10.4749 19.6127 10.4749C19.2499 10.4749 19.0548 10.7437 19.0548 11.0672C19.0548 11.4301 19.2895 11.6524 19.6029 11.6524C19.7655 11.6524 19.874 11.6144 19.9553 11.5789L20.0041 11.791ZM20.8097 9.90455V10.2796H21.2206V10.4962H20.8097V11.3418C20.8097 11.5351 20.8649 11.646 21.0249 11.646C21.1029 11.646 21.149 11.6395 21.1913 11.6273L21.2043 11.8445C21.1491 11.8625 21.0606 11.8831 20.9494 11.8831C20.8155 11.8831 20.7076 11.838 20.6393 11.7626C20.5606 11.675 20.5288 11.5351 20.5288 11.3514V10.4962H20.2837V10.2796H20.5288V9.98833L20.8097 9.90455ZM21.6217 10.7688C21.6217 10.5838 21.6178 10.4259 21.6087 10.2796H21.8597L21.8727 10.5896H21.8825C21.9546 10.3802 22.1308 10.2468 22.3233 10.2468C22.3525 10.2468 22.3753 10.2506 22.4013 10.2532V10.5226C22.372 10.5149 22.3428 10.5149 22.3031 10.5149C22.1009 10.5149 21.9579 10.6638 21.9182 10.8777C21.9117 10.9177 21.9085 10.9647 21.9085 11.0105V11.8458H21.6217V10.7688ZM24.1672 11.0505C24.1672 11.6286 23.7595 11.8812 23.3805 11.8812C22.9559 11.8812 22.623 11.5706 22.623 11.0756C22.623 10.5542 22.9728 10.2474 23.4065 10.2474C23.8603 10.2474 24.1672 10.5742 24.1672 11.0505ZM22.9169 11.0659C22.9169 11.4088 23.1133 11.6685 23.3935 11.6685C23.6672 11.6685 23.8733 11.4133 23.8733 11.0608C23.8733 10.7959 23.7394 10.4614 23.4 10.4614C23.0645 10.4614 22.9169 10.7727 22.9169 11.0659ZM24.6074 10.7031C24.6074 10.5381 24.6041 10.4098 24.5944 10.2803H24.8493L24.8655 10.5381H24.872C24.9507 10.3924 25.1334 10.2474 25.3941 10.2474C25.6126 10.2474 25.952 10.377 25.952 10.9145V11.8458H25.6652V10.9435C25.6652 10.6902 25.5703 10.4801 25.2992 10.4801C25.1132 10.4801 24.9663 10.6128 24.9143 10.772C24.9013 10.8075 24.8948 10.8552 24.8948 10.9035V11.8458H24.608L24.6074 10.7031Z" fill="#1A1F71"/>
</svg>
